<svg width="125" height="125" viewBox="0 0 125 125" fill="none" xmlns="http://www.w3.org/2000/svg">
<g id="ion:logo-xbox">
<path id="Vector" d="M30.7994 60.3115C40.4425 46.0777 49.7212 37.7706 49.7212 37.7706C49.7212 37.7706 39.4952 25.8929 27.1803 21.3993L26.3787 21.205C16.0211 30.2615 9.47674 42.9038 8.06176 56.5895C6.64677 70.2751 10.4661 83.989 18.7517 94.973C18.7517 93.9043 18.8974 77.8973 30.7994 60.3115ZM116.591 62.1818C116.597 54.419 114.939 46.745 111.729 39.6767C108.52 32.6084 103.833 26.3098 97.9849 21.205L97.2077 21.4236C84.8928 25.9172 74.6425 37.7949 74.6425 37.7949C74.6425 37.7949 83.9212 46.102 93.5642 60.3358C105.466 77.9216 105.612 93.9286 105.588 94.9973C112.749 85.5582 116.614 74.0299 116.591 62.1818ZM48.871 19.6504C55.9879 22.8324 62.1332 28.0547 62.1332 28.0547C62.1332 28.0547 68.3271 22.8567 75.444 19.6504C84.3827 15.6426 91.2081 16.9057 93.0055 17.3429C83.935 11.1095 73.1877 7.77271 62.1818 7.77271C51.1759 7.77271 40.4286 11.1095 31.3581 17.3429C33.107 16.9057 39.9081 15.6183 48.871 19.6504ZM87.1274 71.1448C75.8812 57.3239 62.1332 48.3367 62.1332 48.3367C62.1332 48.3367 48.4581 57.3239 37.1876 71.1448C27.5203 83.0225 23.9254 91.7425 21.9822 97.3291L21.6665 98.495C26.7695 104.188 33.015 108.742 39.9959 111.859C46.9769 114.977 54.5364 116.588 62.1818 116.588C69.8272 116.588 77.3868 114.977 84.3677 111.859C91.3486 108.742 97.5941 104.188 102.697 98.495L102.357 97.3291C100.414 91.7425 96.7947 83.0225 87.1274 71.1448Z" fill="white" fill-opacity="0.8"/>
</g>
</svg>
