<svg width="125" height="76" viewBox="0 0 125 76" fill="none" xmlns="http://www.w3.org/2000/svg">
<path id="Vector" fill-rule="evenodd" clip-rule="evenodd" d="M121.436 5.87274C122.358 2.95019 121.436 0.825645 117.355 0.825645H103.787C100.364 0.825645 98.7837 2.68592 97.8614 4.67574C97.8614 4.67574 90.8814 21.6721 81.1344 32.6913C77.9735 35.8781 76.5252 36.9404 74.8126 36.9404C73.8902 36.9404 72.7036 35.8781 72.7036 32.9581V5.73542C72.7036 2.28433 71.6517 0.690918 68.7524 0.690918H47.4137C45.3047 0.690918 43.9885 2.28433 43.9885 3.87774C43.9885 7.1967 48.862 7.9947 49.388 17.2883V37.4819C49.388 41.8631 48.6107 42.6637 46.8852 42.6637C42.2759 42.6637 31.0806 25.5352 24.3649 6.01783C23.0591 2.15219 21.7326 0.690918 18.3074 0.690918H4.60923C0.658092 0.690918 0 2.5486 0 4.54101C0 8.12684 4.60923 26.1829 21.4683 50.0815C32.6636 66.4042 48.6003 75.1771 62.9566 75.1771C71.6517 75.1771 72.7036 73.1846 72.7036 69.8657V57.5174C72.7036 53.5352 73.4938 52.8719 76.2609 52.8719C78.2352 52.8719 81.7925 53.9316 89.8269 61.7665C99.0454 71.0601 100.626 75.3092 105.764 75.3092H119.33C123.281 75.3092 125.126 73.3168 124.071 69.4667C122.887 65.6166 118.407 60.041 112.611 53.403C109.451 49.6877 104.709 45.5707 103.261 43.5783C101.287 40.9226 101.812 39.8603 103.261 37.4715C103.129 37.4715 119.726 13.8372 121.436 5.86238" fill="white" fill-opacity="0.8"/>
</svg>
