<svg width="109" height="66" viewBox="0 0 109 66" fill="none" xmlns="http://www.w3.org/2000/svg">
<path id="Vector" d="M17.4109 0.536133V15.7707L0 15.7707L0 52.6134H28.2927L28.2927 0.536133L17.4109 0.536133ZM17.4109 44.0634H10.8818V24.6316H17.4109L17.4109 44.0634ZM32.6455 15.7707H43.5273V52.7689H32.6455V15.7707ZM32.6455 0.536133L43.5273 0.536133V11.4179H32.6455V0.536133ZM47.88 15.7707V52.6134L65.2909 52.6134V56.9661L47.88 56.9661L47.88 65.827H76.1727V15.7707L47.88 15.7707ZM65.2909 44.0634L58.7618 44.0634V24.6316H65.2909V44.0634ZM80.5255 15.7707V52.6134H97.9364V56.9661H80.5255V65.827H108.818V15.7707H80.5255ZM97.9364 44.0634H91.4073V24.6316L97.9364 24.6316V44.0634Z" fill="white" fill-opacity="0.8"/>
</svg>
