<svg width="125" height="125" viewBox="0 0 125 125" fill="none" xmlns="http://www.w3.org/2000/svg">
<g id="material-symbols:logo-dev">
<path id="Vector" d="M31.0914 77.7272H43.5277C45.1686 77.7272 46.5729 77.1434 47.7405 75.9758C48.9082 74.8081 49.4903 73.4056 49.4868 71.7682V52.5954C49.4868 50.9545 48.903 49.5502 47.7354 48.3826C46.5677 47.215 45.1652 46.6329 43.5277 46.6363H31.0914V77.7272ZM37.0505 71.7682V52.5954H43.5277V71.7682H37.0505ZM56.3527 77.7272L69.0482 77.5977V71.7682H58.4255V65.0318H65.1618V59.0727H58.4255V52.5954H69.0482V46.6363H56.3527C55.23 46.6363 54.3025 47.0025 53.5701 47.7349C52.8377 48.4672 52.4698 49.3965 52.4664 50.5227V73.8409C52.4664 74.9636 52.8343 75.8911 53.5701 76.6235C54.3059 77.3559 55.2335 77.7238 56.3527 77.7272ZM83.0391 77.5977C84.1618 77.5977 85.1343 77.2298 85.9565 76.494C86.7786 75.7582 87.3176 74.8306 87.5732 73.7113L94.8277 46.6363H88.6096L83.0391 67.8818L77.4686 46.6363H71.2505L78.505 73.7113C78.7641 74.8341 79.3047 75.7633 80.1269 76.4991C80.9491 77.235 81.9198 77.6012 83.0391 77.5977ZM25.9095 108.818C23.0595 108.818 20.6189 107.803 18.5876 105.771C16.5564 103.74 15.5425 101.301 15.5459 98.4545V25.9091C15.5459 23.0591 16.5615 20.6184 18.5928 18.5871C20.6241 16.5559 23.063 15.542 25.9095 15.5454H98.455C101.305 15.5454 103.746 16.5611 105.777 18.5923C107.808 20.6236 108.822 23.0625 108.819 25.9091V98.4545C108.819 101.305 107.803 103.745 105.772 105.776C103.74 107.808 101.302 108.822 98.455 108.818H25.9095Z" fill="white" fill-opacity="0.8"/>
</g>
</svg>
